<svg width="25" height="26" viewBox="0 0 25 26" fill="none" xmlns="http://www.w3.org/2000/svg">
<path d="M11.7645 25.6201C11.4868 25.6201 11.2106 25.5746 10.9454 25.485C9.80619 25.1008 9.07774 24.0237 9.089 22.742C9.099 21.5703 8.89204 20.5472 8.47435 19.7031C7.96225 18.6679 7.10938 17.871 5.93886 17.3342C5.82518 17.2822 5.72209 17.2066 5.63547 17.1116C5.54885 17.0166 5.48041 16.9041 5.43405 16.7805C5.38768 16.657 5.36431 16.5247 5.36526 16.3914C5.36621 16.2581 5.39146 16.1263 5.43958 16.0035C5.4877 15.8807 5.55774 15.7694 5.6457 15.6758C5.73366 15.5823 5.83782 15.5084 5.95223 15.4583C6.06664 15.4082 6.18906 15.383 6.31251 15.384C6.43595 15.385 6.558 15.4123 6.67169 15.4643C9.51043 16.7649 10.9948 19.2865 10.9642 22.7575C10.9649 22.9334 11.0175 23.1046 11.1142 23.2461C11.211 23.3877 11.3469 23.4923 11.5023 23.545C11.6578 23.5976 11.8247 23.5955 11.979 23.5389C12.1332 23.4823 12.2668 23.3742 12.3604 23.2302C14.1325 20.4135 12.5774 17.3126 12.5618 17.2815C12.4827 17.1273 12.4422 16.9535 12.4443 16.7772C12.4465 16.6009 12.4912 16.4283 12.5741 16.2764C12.6569 16.1245 12.7751 15.9986 12.9168 15.9111C13.0585 15.8236 13.2189 15.7776 13.3821 15.7776H22.2385C22.4702 15.771 22.6903 15.6669 22.852 15.4876C23.0136 15.3083 23.1041 15.068 23.1041 14.8177C23.1041 14.5674 23.0136 14.327 22.852 14.1477C22.6903 13.9684 22.4702 13.8644 22.2385 13.8578H20.9598C20.7111 13.8578 20.4725 13.751 20.2966 13.5611C20.1207 13.3711 20.0219 13.1135 20.0219 12.8448C20.0219 12.5762 20.1207 12.3185 20.2966 12.1286C20.4725 11.9386 20.7111 11.8319 20.9598 11.8319C21.0765 11.832 21.1921 11.8072 21.3 11.759C21.4078 11.7108 21.5058 11.6401 21.5883 11.551C21.6708 11.4619 21.7363 11.3561 21.7809 11.2396C21.8255 11.1231 21.8484 10.9983 21.8484 10.8723C21.848 10.6179 21.7543 10.374 21.5878 10.1941C21.4212 10.0142 21.1954 9.91303 20.9598 9.91268H19.6818C19.433 9.91268 19.1945 9.80596 19.0186 9.61599C18.8427 9.42603 18.7439 9.16838 18.7439 8.89973C18.7439 8.63108 18.8427 8.37343 19.0186 8.18347C19.1945 7.99351 19.433 7.88679 19.6818 7.88679C19.9174 7.88679 20.1434 7.78569 20.3101 7.60573C20.4767 7.42577 20.5703 7.18169 20.5703 6.92719C20.5703 6.67269 20.4767 6.42861 20.3101 6.24865C20.1434 6.06869 19.9174 5.96759 19.6818 5.96759H18.4031C18.1543 5.96759 17.9158 5.86087 17.7399 5.67091C17.564 5.48095 17.4652 5.2233 17.4652 4.95465C17.4652 4.686 17.564 4.42835 17.7399 4.23839C17.9158 4.04843 18.1543 3.94171 18.4031 3.94171C18.6387 3.94171 18.8647 3.84061 19.0314 3.66065C19.198 3.48069 19.2916 3.23661 19.2916 2.98211C19.2916 2.72761 19.198 2.48353 19.0314 2.30357C18.8647 2.12361 18.6387 2.02251 18.4031 2.02251H12.9851C12.1512 2.02129 11.3238 2.18139 10.5421 2.49522L6.32153 4.18819C6.0947 4.25796 5.85185 4.23288 5.64138 4.11793C5.4309 4.00298 5.26825 3.80661 5.18584 3.56795C5.10342 3.32928 5.10729 3.06584 5.19667 2.83012C5.28605 2.59439 5.45438 2.40369 5.66812 2.29601L9.88873 0.60304C10.8792 0.203853 11.9279 -0.000389324 12.9851 5.57133e-07H18.4031C18.8682 0.000921514 19.3255 0.128443 19.7329 0.37078C20.1403 0.613117 20.4845 0.962449 20.7338 1.38649C20.9831 1.81053 21.1294 2.2956 21.1592 2.79686C21.189 3.29812 21.1013 3.7994 20.9042 4.25437C21.5525 4.60115 22.0493 5.20827 22.2883 5.94573C22.5273 6.6832 22.4894 7.49241 22.1829 8.20012C22.8309 8.54703 23.3275 9.15408 23.5663 9.89137C23.8052 10.6287 23.7674 11.4376 23.4609 12.1452C24.0201 12.4438 24.4693 12.9378 24.7355 13.547C25.0018 14.1562 25.0694 14.8447 24.9275 15.5007C24.7856 16.1567 24.4424 16.7415 23.9538 17.1602C23.4652 17.5789 22.8598 17.8068 22.236 17.8069H14.7552C15.1785 19.3675 15.4574 21.9161 13.9124 24.3721C13.6776 24.7555 13.3586 25.0701 12.9838 25.2879C12.609 25.5057 12.1901 25.6198 11.7645 25.6201V25.6201Z" fill="white"/>
<path d="M6.30715 17.4125H0.937912C0.689162 17.4125 0.450601 17.3058 0.274708 17.1158C0.0988155 16.9259 0 16.6682 0 16.3996V2.51276C0 2.24411 0.0988155 1.98647 0.274708 1.7965C0.450601 1.60654 0.689162 1.49982 0.937912 1.49982H6.30715C6.5559 1.49982 6.79446 1.60654 6.97035 1.7965C7.14624 1.98647 7.24506 2.24411 7.24506 2.51276V16.3996C7.24506 16.6682 7.14624 16.9259 6.97035 17.1158C6.79446 17.3058 6.5559 17.4125 6.30715 17.4125ZM1.8777 15.3866H5.36923V3.52571H1.87582L1.8777 15.3866Z" fill="white"/>
</svg>
