<svg width="27" height="27" viewBox="0 0 27 27" fill="none" xmlns="http://www.w3.org/2000/svg">
<path d="M13.5005 0.9H13.5C6.54448 0.9 0.9 6.54448 0.9 13.5C0.9 20.4553 6.54429 26.1 13.4639 26.1C20.3832 26.1 26.0636 20.4557 26.1 13.5005L26.1 13.4995C26.0636 6.54437 20.4556 0.936416 13.5005 0.9ZM13.4994 24.8162C7.26879 24.8159 2.18381 19.7307 2.18381 13.5C2.18381 7.2691 7.2691 2.18381 13.5 2.18381C19.7311 2.18381 24.8159 7.23308 24.8162 13.4633C24.7804 19.731 19.7306 24.7804 13.4994 24.8162Z" fill="white" stroke="white" stroke-width="0.2"/>
<path d="M17.3656 11.1656C18.4054 11.1656 19.258 10.3117 19.258 9.23702C19.258 8.16045 18.4034 7.34453 17.3294 7.34453C16.2896 7.34453 15.4369 8.19848 15.4369 9.27314C15.4369 10.3497 16.2915 11.1656 17.3656 11.1656ZM17.3656 8.56447C17.7685 8.56447 18.0742 8.90027 18.0742 9.30927C18.0742 9.71219 17.7384 10.0179 17.3294 10.0179C16.9265 10.0179 16.6208 9.68214 16.6208 9.27314C16.6208 8.87022 16.9566 8.56447 17.3656 8.56447Z" fill="white" stroke="white" stroke-width="0.1"/>
<path d="M9.85475 7.29459L9.85475 7.29453H9.85118C8.7875 7.29453 7.87355 8.16679 7.87257 9.23529C7.83539 10.3407 8.71339 11.2156 9.81506 11.2156C10.8793 11.2156 11.7937 10.3424 11.7937 9.27314C11.7937 8.20569 10.918 7.33257 9.85475 7.29459ZM9.15639 9.27314H9.15673L9.15604 9.26484C9.12569 8.90068 9.42832 8.61447 9.81506 8.61447C10.1964 8.61447 10.5099 8.93394 10.5099 9.27314C10.5099 9.61824 10.1905 9.96794 9.81506 9.96794C9.44274 9.96794 9.15639 9.65762 9.15639 9.27314Z" fill="white" stroke="white" stroke-width="0.2"/>
<path d="M8.29905 16.6476L8.23175 16.5745L8.15819 16.6413L7.3634 17.3639L7.28884 17.4317L7.35718 17.5057C8.22474 18.4456 10.2741 20.6087 13.5 20.6087C16.3923 20.6087 18.4251 18.6498 19.4145 17.6964C19.4293 17.6822 19.4438 17.6682 19.4581 17.6544L19.5315 17.5837L19.4595 17.5117L18.7008 16.753L18.6301 16.6823L18.5594 16.753C17.6179 17.6945 15.9107 19.361 13.5 19.361C10.802 19.361 9.13076 17.5516 8.29905 16.6476Z" fill="white" stroke="white" stroke-width="0.2"/>
</svg>
