<svg width="25" height="24" viewBox="0 0 25 24" fill="none" xmlns="http://www.w3.org/2000/svg">
<path d="M18.4012 23.7195H12.9837C11.9268 23.7205 10.8782 23.532 9.88769 23.1631L5.6675 21.5957C5.43636 21.5076 5.24939 21.3317 5.14731 21.1064C5.04522 20.8811 5.03629 20.6246 5.12246 20.3927C5.20863 20.1608 5.38292 19.9724 5.60737 19.8684C5.83183 19.7644 6.08827 19.7534 6.32085 19.8376L10.5404 21.405C11.3222 21.6955 12.1497 21.8437 12.9837 21.8426H18.4012C18.6368 21.8426 18.8628 21.749 19.0294 21.5824C19.196 21.4158 19.2896 21.1898 19.2896 20.9542C19.2896 20.7186 19.196 20.4926 19.0294 20.326C18.8628 20.1594 18.6368 20.0658 18.4012 20.0658C18.1525 20.0658 17.9139 19.967 17.7381 19.7911C17.5622 19.6152 17.4634 19.3767 17.4634 19.128C17.4634 18.8793 17.5622 18.6407 17.7381 18.4648C17.9139 18.289 18.1525 18.1902 18.4012 18.1902H19.6798C19.9154 18.1902 20.1414 18.0966 20.308 17.9299C20.4746 17.7633 20.5682 17.5374 20.5682 17.3017C20.5682 17.0661 20.4746 16.8401 20.308 16.6735C20.1414 16.5069 19.9154 16.4133 19.6798 16.4133C19.431 16.4133 19.1925 16.3145 19.0166 16.1386C18.8407 15.9627 18.7419 15.7242 18.7419 15.4755C18.7419 15.2268 18.8407 14.9882 19.0166 14.8123C19.1925 14.6365 19.431 14.5377 19.6798 14.5377H20.9577C21.1334 14.5377 21.3053 14.4856 21.4514 14.388C21.5975 14.2904 21.7115 14.1516 21.7787 13.9893C21.846 13.8269 21.8636 13.6482 21.8293 13.4759C21.795 13.3035 21.7103 13.1452 21.586 13.0209C21.5038 12.9381 21.4059 12.8724 21.298 12.8277C21.1901 12.7831 21.0744 12.7603 20.9577 12.7608C20.709 12.7608 20.4704 12.662 20.2945 12.4861C20.1187 12.3103 20.0199 12.0717 20.0199 11.823C20.0199 11.5743 20.1187 11.3357 20.2945 11.1599C20.4704 10.984 20.709 10.8852 20.9577 10.8852H22.2362C22.4117 10.8846 22.5831 10.8321 22.7288 10.7342C22.8745 10.6364 22.9879 10.4976 23.0548 10.3353C23.1216 10.1731 23.139 9.99468 23.1046 9.8226C23.0702 9.65052 22.9856 9.49248 22.8615 9.36842C22.7796 9.28585 22.6822 9.22031 22.5749 9.17556C22.4676 9.13082 22.3525 9.10775 22.2362 9.1077H13.3807C13.2175 9.1079 13.0571 9.06551 12.9153 8.98472C12.7735 8.90393 12.6553 8.78754 12.5722 8.64704C12.4892 8.50655 12.4443 8.34682 12.4419 8.18364C12.4395 8.02046 12.4797 7.85948 12.5586 7.71661C12.8435 7.13858 13.0375 6.52006 13.1338 5.88286C13.3457 4.51552 13.0844 3.27948 12.3573 2.20912C12.2637 2.0758 12.1301 1.97571 11.9758 1.92332C11.8216 1.87093 11.6547 1.86896 11.4993 1.91769C11.3438 1.96641 11.2079 2.06331 11.1112 2.19438C11.0145 2.32544 10.9619 2.48387 10.9612 2.64676C10.9918 5.8591 9.50756 8.19364 6.66909 9.39905C6.55529 9.44995 6.43248 9.47765 6.30785 9.48053C6.18322 9.4834 6.05926 9.4614 5.94323 9.41581C5.8272 9.37022 5.72143 9.30195 5.63209 9.215C5.54275 9.12805 5.47165 9.02416 5.42294 8.9094C5.37423 8.79464 5.34888 8.67133 5.34839 8.54666C5.3479 8.422 5.37227 8.29849 5.42007 8.18335C5.46787 8.06821 5.53815 7.96376 5.6268 7.87611C5.71545 7.78845 5.82068 7.71935 5.93635 7.67284C7.10674 7.17267 7.95953 6.43805 8.47158 5.4796C8.88922 4.69746 9.09679 3.75089 9.08616 2.66615C9.07679 1.48074 9.80766 0.480405 10.9443 0.126535C12.0809 -0.227335 13.2457 0.175302 13.9109 1.15563C15.4558 3.4289 15.177 5.78845 14.7537 7.23332H22.2362C22.8599 7.2334 23.4653 7.4444 23.9538 7.83203C24.4424 8.21967 24.7856 8.76115 24.9275 9.36847C25.0694 9.97579 25.0017 10.6133 24.7355 11.1773C24.4693 11.7413 24.0201 12.1987 23.461 12.4751C23.7674 13.1302 23.8052 13.8792 23.5664 14.5618C23.3276 15.2444 22.8311 15.8064 22.1831 16.1276C22.4896 16.7828 22.5275 17.532 22.2885 18.2148C22.0495 18.8975 21.5528 19.4596 20.9045 19.7807C21.1019 20.2019 21.1899 20.6661 21.1603 21.1303C21.1307 21.5945 20.9844 22.0438 20.7351 22.4365C20.4858 22.8291 20.1414 23.1526 19.7339 23.3769C19.3264 23.6012 18.8689 23.719 18.4037 23.7195H18.4012Z" fill="white"/>
<path d="M6.30651 22.3309H0.937818C0.689093 22.3309 0.450555 22.2321 0.27468 22.0562C0.0988055 21.8804 0 21.6418 0 21.3931V8.53688C0 8.28815 0.0988055 8.04962 0.27468 7.87374C0.450555 7.69787 0.689093 7.59906 0.937818 7.59906H6.30651C6.55524 7.59906 6.79377 7.69787 6.96965 7.87374C7.14552 8.04962 7.24433 8.28815 7.24433 8.53688V21.3931C7.24433 21.6418 7.14552 21.8804 6.96965 22.0562C6.79377 22.2321 6.55524 22.3309 6.30651 22.3309ZM1.87751 20.4553H5.36869V9.4747H1.87564L1.87751 20.4553Z" fill="white"/>
</svg>
